<?xml version="1.0" encoding="UTF-8"?>
<svg width="18px" height="18px" viewBox="0 0 18 18" version="1.1" xmlns="http://www.w3.org/2000/svg" xmlns:xlink="http://www.w3.org/1999/xlink">
    <!-- Generator: Sketch 54.1 (76490) - https://sketchapp.com -->
    <title>Icon/Plus</title>
    <desc>Created with Sketch.</desc>
    <defs>
        <path d="M17.7638952,7.80722128 L10.392168,7.80722128 L10.392168,0.841295397 C10.392168,0.394847973 10.0195312,0.0336518159 9.55894296,0.0336518159 L9.55894296,0.0336518159 C9.09835466,0.0336518159 8.72571791,0.394847973 8.72571791,0.841295397 L8.72571791,7.80722128 L1.51600669,7.80722128 C1.0554184,7.80722128 0.68278164,8.16841744 0.68278164,8.61486486 L0.68278164,8.61486486 C0.68278164,9.06131229 1.0554184,9.42250845 1.51600669,9.42250845 L8.72571791,9.42250845 L8.72571791,16.4108689 C8.72571791,16.8573163 9.09835466,17.2185125 9.55894296,17.2185125 L9.55894296,17.2185125 C10.0195312,17.2185125 10.392168,16.8573163 10.392168,16.4108689 L10.392168,9.42250845 L17.7638952,9.42250845 C18.2244835,9.42250845 18.5971203,9.06131229 18.5971203,8.61486486 L18.5971203,8.61486486 C18.5971203,8.16841744 18.2244835,7.80722128 17.7638952,7.80722128 Z" id="path-1"></path>
    </defs>
    <g id="页面1" stroke="none" stroke-width="1" fill="none" fill-rule="evenodd">
        <g id="寄件" transform="translate(-118.000000, -285.000000)">
            <g id="编组-2" transform="translate(-13.000000, 106.000000)">
                <g id="1复制" transform="translate(30.000000, 163.000000)">
                    <g id="Group-5" transform="translate(72.000000, -1.000000)">
                        <g id="Group">
                            <g id="Icon/Plus" transform="translate(28.378378, 17.229730)">
                                <mask id="mask-2" fill="white">
                                    <use xlink:href="#path-1"></use>
                                </mask>
                                <use id="Mask" fill-opacity="0.45" fill="#000000" fill-rule="nonzero" xlink:href="#path-1"></use>
                            </g>
                        </g>
                    </g>
                </g>
            </g>
        </g>
    </g>
</svg>